<?xml version="1.0" standalone="no"?>
<!DOCTYPE svg PUBLIC "-//W3C//DTD SVG 20010904//EN"
 "http://www.w3.org/TR/2001/REC-SVG-20010904/DTD/svg10.dtd">
<svg version="1.0" xmlns="http://www.w3.org/2000/svg"
 width="16.000000pt" height="16.000000pt" viewBox="0 0 16.000000 16.000000"
 preserveAspectRatio="xMidYMid meet">
<metadata>
Created by potrace 1.11, written by Peter Selinger 2001-2013
</metadata>
<g transform="translate(0.000000,16.000000) scale(0.002033,-0.002033)"
fill="#000000" stroke="none">
<path d="M3205 7773 c-454 -36 -793 -128 -1175 -317 -347 -173 -619 -374 -910
-672 -216 -221 -369 -419 -525 -679 -731 -1214 -790 -2779 -155 -4052 199
-399 410 -693 715 -998 183 -184 320 -297 520 -430 398 -265 811 -426 1285
-500 143 -23 526 -31 695 -15 98 9 154 9 229 1 141 -16 477 -14 626 4 720 84
1369 410 1909 957 608 618 978 1404 1103 2343 19 147 22 216 23 505 0 362 -7
462 -55 745 -256 1509 -1289 2707 -2610 3029 -290 70 -602 97 -882 76 -217
-17 -233 -17 -407 -2 -124 11 -288 13 -386 5z m1309 -279 c178 -22 343 -60
521 -119 450 -150 831 -389 1185 -744 458 -459 782 -1042 949 -1710 85 -340
114 -587 115 -976 1 -314 -6 -402 -50 -675 -210 -1308 -1071 -2397 -2191
-2769 -275 -92 -490 -129 -785 -138 -221 -6 -383 5 -583 42 -1019 189 -1902
962 -2333 2046 -274 686 -351 1473 -217 2214 140 768 485 1445 1005 1966 522
524 1156 824 1854 879 136 10 371 3 530 -16z m-1809 -100 c-55 -31 -132 -76
-171 -100 l-71 -44 -124 1 -124 1 65 30 c122 58 447 165 505 167 11 1 -25 -24
-80 -55z m-595 -410 c0 -4 -48 -53 -107 -109 -60 -56 -144 -144 -188 -194
l-80 -91 -220 0 -219 0 54 56 c71 72 223 204 325 282 l80 62 178 0 c97 0 177
-3 177 -6z m-590 -669 c0 -3 -22 -38 -48 -78 -57 -85 -140 -225 -208 -354
l-49 -93 -247 0 c-137 0 -248 2 -248 4 0 22 219 367 297 469 l44 57 230 0
c126 0 229 -2 229 -5z m-425 -802 c-5 -10 -35 -100 -69 -200 l-61 -182 -262
-1 -263 0 44 123 c24 67 58 157 76 200 l32 77 255 0 c239 0 255 -1 248 -17z
m-208 -685 c-4 -24 -15 -92 -26 -153 -10 -60 -22 -131 -26 -157 l-6 -48 -265
0 -265 0 5 33 c18 105 47 273 57 316 l11 51 260 0 261 0 -6 -42z m-87 -828 l0
-200 -264 0 -263 0 -5 64 c-3 35 -3 125 0 200 l5 136 263 0 264 0 0 -200z m18
-495 c4 -49 43 -318 49 -342 l5 -23 -265 0 -264 0 -7 38 c-20 119 -46 302 -46
330 l0 32 263 -2 262 -3 3 -30z m137 -727 c16 -57 43 -147 61 -200 l33 -98
-258 0 -258 0 -62 184 c-33 102 -61 192 -61 200 0 14 30 16 258 16 l259 0 28
-102z m294 -753 c54 -104 116 -220 139 -258 23 -37 42 -72 42 -77 0 -6 -87
-10 -232 -10 l-233 1 -19 26 c-79 109 -286 471 -286 502 0 8 62 11 246 9 l246
-3 97 -190z m438 -684 c35 -43 113 -132 174 -197 l112 -119 -198 -3 -197 -2
-47 37 c-64 52 -253 236 -313 306 l-50 57 229 0 228 0 62 -79z m672 -642 c103
-76 241 -163 362 -229 82 -44 89 -50 54 -44 -55 9 -250 68 -365 111 -111 40
-412 187 -430 208 -11 13 7 15 142 15 l154 0 83 -61z"/>
<path d="M4100 6898 c-50 -34 -70 -93 -50 -150 26 -72 48 -81 233 -94 150 -11
165 -11 204 6 108 47 91 207 -26 240 -20 6 -101 13 -181 16 -141 6 -146 6
-180 -18z"/>
<path d="M3280 6741 c-139 -56 -194 -86 -224 -121 -50 -60 -24 -165 49 -196
51 -21 66 -18 173 30 53 24 122 55 154 69 63 28 88 58 94 114 7 49 -21 100
-67 125 -48 26 -71 23 -179 -21z"/>
<path d="M5121 6662 c-100 -55 -90 -183 19 -241 25 -13 86 -48 136 -77 75 -45
98 -54 138 -54 41 0 53 5 81 33 63 63 60 134 -9 194 -60 52 -247 154 -293 159
-26 4 -49 -1 -72 -14z"/>
<path d="M2475 6196 c-30 -13 -135 -118 -209 -209 -69 -84 -57 -180 27 -220
19 -9 45 -17 57 -17 37 0 86 29 121 73 18 23 62 71 96 108 78 82 98 125 83
178 -11 42 -41 74 -83 90 -36 14 -55 13 -92 -3z"/>
<path d="M5922 6000 c-40 -25 -66 -81 -59 -127 4 -22 42 -82 107 -168 88 -117
106 -136 140 -146 98 -30 191 57 166 154 -7 30 -117 185 -176 250 -41 44 -51
50 -95 54 -39 3 -58 -1 -83 -17z"/>
<path d="M1873 5320 c-38 -23 -52 -49 -109 -199 -47 -122 -53 -174 -29 -221
31 -60 124 -79 185 -37 29 19 42 44 92 172 32 83 58 164 58 181 0 37 -36 94
-70 111 -37 19 -91 16 -127 -7z"/>
<path d="M2302 4643 l3 -618 130 0 130 0 0 615 0 615 -133 3 -132 3 2 -618z"/>
<path d="M3380 5236 c-142 -42 -222 -121 -272 -266 -22 -61 -23 -81 -23 -325
0 -224 3 -268 18 -320 56 -181 172 -282 354 -308 186 -27 366 49 447 188 56
97 61 130 61 410 0 241 -2 265 -22 331 -43 136 -134 237 -253 280 -61 22 -250
28 -310 10z m230 -128 c32 -16 52 -36 70 -68 24 -43 25 -55 33 -315 11 -357 7
-440 -24 -496 -42 -75 -118 -109 -203 -89 -53 12 -86 38 -116 91 l-25 44 -3
342 c-2 224 1 355 8 382 30 113 151 164 260 109z"/>
<path d="M4000 5234 c0 -3 68 -275 152 -605 l151 -599 108 0 c135 0 154 7 163
57 14 74 108 458 115 466 4 4 38 -110 76 -253 l69 -261 129 3 130 3 44 200
c24 110 69 313 99 450 30 138 68 309 84 382 17 72 30 134 30 137 0 3 -56 6
-124 6 l-124 0 -20 -92 c-42 -185 -104 -466 -133 -598 -38 -178 -39 -183 -45
-177 -3 2 -36 120 -75 261 l-69 257 40 162 c23 89 43 170 46 180 5 15 -3 17
-70 17 -72 0 -76 -1 -82 -25 -7 -28 -24 -24 -24 6 0 17 -7 19 -75 19 -41 0
-75 -3 -75 -7 0 -5 21 -85 46 -178 l47 -171 -46 -189 c-25 -105 -53 -223 -62
-262 -9 -40 -20 -73 -23 -73 -4 0 -56 198 -115 439 l-109 438 -51 7 c-66 8
-207 8 -207 0z"/>
<path d="M5663 5206 c-130 -41 -238 -178 -261 -331 -15 -97 1 -499 22 -560 27
-77 59 -125 120 -183 94 -89 217 -126 343 -103 185 34 303 165 303 336 l0 65
-100 0 -100 0 0 -78 c0 -103 -26 -157 -90 -189 -89 -46 -185 -15 -230 72 -23
45 -25 62 -29 202 l-3 153 211 0 211 0 0 70 0 70 -215 0 -215 0 0 95 c0 171
35 252 120 275 130 35 230 -57 230 -212 l0 -68 100 0 100 0 0 58 c0 75 -13
120 -53 178 -71 106 -193 165 -341 163 -44 0 -100 -6 -123 -13z"/>
<path d="M6443 5095 c-39 -17 -73 -68 -73 -110 0 -17 20 -98 45 -180 37 -124
50 -155 75 -177 56 -51 161 -34 195 32 27 52 20 103 -42 295 -32 98 -45 119
-88 139 -40 19 -70 20 -112 1z"/>
<path d="M1628 4309 c-61 -32 -70 -61 -76 -245 -4 -153 -4 -164 17 -197 51
-83 172 -78 223 9 13 23 17 62 20 201 3 171 3 171 -22 198 -27 29 -78 55 -107
55 -10 -1 -35 -10 -55 -21z"/>
<path d="M6602 4050 c-48 -30 -59 -67 -66 -237 -6 -131 -5 -157 9 -187 45 -94
176 -97 229 -6 17 28 19 54 20 206 l1 173 -32 32 c-41 42 -112 50 -161 19z"/>
<path d="M3990 3804 c-189 -41 -309 -164 -367 -374 -16 -56 -18 -102 -16 -331
3 -306 14 -386 68 -497 82 -166 231 -252 435 -252 170 1 282 42 380 140 64 65
103 140 131 251 19 73 20 104 17 362 -4 225 -8 294 -21 342 -41 144 -133 267
-239 319 -108 53 -258 68 -388 40z m217 -145 c38 -14 80 -56 106 -104 20 -38
22 -61 29 -434 10 -433 6 -473 -42 -540 -84 -116 -281 -113 -347 6 -39 69 -42
107 -44 513 -3 389 -2 396 20 445 28 63 46 83 96 106 45 21 138 25 182 8z"/>
<path d="M4867 3803 l-77 -4 5 -367 c9 -656 14 -706 77 -825 62 -116 154 -187
279 -213 157 -33 290 10 371 119 l30 42 -6 -37 c-3 -21 -9 -54 -12 -75 l-7
-36 142 6 c79 3 144 7 146 9 1 1 -3 298 -11 658 -7 360 -13 672 -14 693 l0 37
-146 0 c-134 0 -145 -1 -140 -17 3 -10 6 -247 8 -528 l3 -510 -24 -59 c-27
-67 -86 -138 -131 -156 -47 -20 -132 -8 -173 23 -78 60 -97 160 -97 533 0 127
-3 339 -7 472 l-6 242 -66 -2 c-36 -1 -101 -4 -144 -5z"/>
<path d="M2488 3783 l-128 -4 0 -117 c0 -205 42 -323 153 -439 72 -76 138
-119 215 -143 l57 -18 3 -366 2 -366 94 0 c51 0 121 3 155 6 l61 7 0 364 c0
337 1 364 18 369 9 3 50 21 89 40 139 66 256 217 288 371 8 38 15 121 15 186
l0 117 -155 0 -155 0 0 -188 c0 -210 -8 -251 -62 -316 -96 -117 -311 -115
-408 2 -50 61 -60 113 -60 319 l0 183 -27 -2 c-16 -1 -85 -4 -155 -5z"/>
<path d="M1702 3260 c-50 -31 -67 -81 -52 -149 22 -100 79 -268 100 -294 44
-56 136 -59 189 -6 48 48 48 79 1 241 -24 79 -49 155 -57 170 -28 57 -119 76
-181 38z"/>
<path d="M6435 3021 c-17 -10 -38 -36 -48 -57 -49 -113 -107 -277 -107 -302 0
-35 37 -92 70 -109 40 -20 103 -16 135 9 31 24 76 117 123 254 32 93 33 117 3
173 -27 49 -120 67 -176 32z"/>
<path d="M2144 2316 c-49 -22 -74 -61 -74 -117 0 -51 29 -102 142 -245 56 -72
90 -94 143 -94 109 0 162 113 98 207 -75 108 -170 232 -185 242 -29 18 -91 22
-124 7z"/>
<path d="M5963 2119 c-22 -6 -65 -47 -144 -135 -104 -117 -112 -129 -116 -172
-5 -56 10 -88 56 -119 39 -26 89 -30 130 -8 29 14 205 207 228 248 17 30 16
92 -1 126 -27 52 -93 78 -153 60z"/>
<path d="M2885 1581 c-55 -24 -90 -97 -74 -154 11 -41 45 -73 131 -126 192
-116 245 -126 310 -61 39 39 40 42 36 97 -6 69 -14 76 -183 175 -121 72 -175
89 -220 69z"/>
<path d="M5137 1449 c-10 -6 -70 -33 -135 -60 -141 -60 -172 -88 -172 -155 0
-83 47 -134 124 -134 66 0 308 109 344 155 44 56 36 133 -19 180 -23 19 -42
25 -77 25 -26 0 -55 -5 -65 -11z"/>
<path d="M3851 1212 c-38 -20 -71 -73 -71 -112 0 -37 33 -92 67 -112 44 -26
322 -45 378 -26 75 25 108 116 65 185 -34 57 -57 65 -213 74 -195 11 -188 11
-226 -9z"/>
</g>
</svg>
